<svg xmlns="http://www.w3.org/2000/svg" viewBox="0 0 900 220" role="img" aria-label="UiBank logo">
  <rect width="900" height="220" fill="none"/>
  <g fill="#ff4b1f">
    <path d="M40 25h40v105c0 34 22 54 58 54s58-20 58-54V25h40v107c0 56-38 91-98 91s-98-35-98-91V25z"/>
    <circle cx="250" cy="32" r="24"/>
    <rect x="226" y="68" width="48" height="132" rx="2"/>
  </g>
  <g fill="#111111">
    <path d="M320 28h103c55 0 86 29 86 72 0 22-10 42-30 53 28 10 42 32 42 60 0 48-36 80-95 80H320V28zm89 37h-49v56h49c26 0 41-10 41-28 0-17-15-28-41-28zm8 91h-57v61h57c29 0 44-11 44-30 0-20-15-31-44-31z"/>
    <path d="M643 223c-53 0-93-37-93-88s40-88 93-88 93 37 93 88-40 88-93 88zm0-38c30 0 53-21 53-50s-23-50-53-50-53 21-53 50 23 50 53 50z"/>
    <path d="M754 52h38v24c12-18 30-29 54-29 41 0 68 27 68 72v99h-40v-88c0-27-14-42-38-42-26 0-42 17-42 46v84h-40V52z"/>
  </g>
</svg>
